<?xml version="1.0" encoding="UTF-8" standalone="no"?>
<!-- Created with Inkscape (http://www.inkscape.org/) -->

<svg
   width="33.709pt"
   height="33.709pt"
   viewBox="0 0 33.708999 33.708999"
   version="1.1"
   id="svg5"
   inkscape:version="1.3.2 (091e20ef0f, 2023-11-25, custom)"
   sodipodi:docname="project_avatar.svg"
   xml:space="preserve"
   xmlns:inkscape="http://www.inkscape.org/namespaces/inkscape"
   xmlns:sodipodi="http://sodipodi.sourceforge.net/DTD/sodipodi-0.dtd"
   xmlns:xlink="http://www.w3.org/1999/xlink"
   xmlns="http://www.w3.org/2000/svg"
   xmlns:svg="http://www.w3.org/2000/svg"><sodipodi:namedview
     id="namedview7"
     pagecolor="#222222"
     bordercolor="#eeeeee"
     borderopacity="1"
     inkscape:pageshadow="0"
     inkscape:pageopacity="0"
     inkscape:pagecheckerboard="0"
     inkscape:document-units="mm"
     showgrid="false"
     fit-margin-top="0"
     fit-margin-left="0"
     fit-margin-right="0"
     fit-margin-bottom="0"
     inkscape:showpageshadow="0"
     inkscape:deskcolor="#d1d1d1"
     showguides="false"
     inkscape:zoom="4.17193"
     inkscape:cx="39.909586"
     inkscape:cy="16.059713"
     inkscape:window-width="1920"
     inkscape:window-height="1014"
     inkscape:window-x="1920"
     inkscape:window-y="29"
     inkscape:window-maximized="1"
     inkscape:current-layer="layer1" /><defs
     id="defs2"><linearGradient
       id="linearGradient2"
       inkscape:collect="always"><stop
         style="stop-color:#bd00d0;stop-opacity:1;"
         offset="0"
         id="stop3" /><stop
         style="stop-color:#3a00ee;stop-opacity:1;"
         offset="0.5"
         id="stop4" /></linearGradient><linearGradient
       inkscape:collect="always"
       xlink:href="#linearGradient2"
       id="linearGradient3"
       x1="160.88252"
       y1="252.53601"
       x2="224.20248"
       y2="290.52817"
       gradientUnits="userSpaceOnUse" /></defs><g
     inkscape:label="Layer 1"
     inkscape:groupmode="layer"
     id="layer1"
     transform="translate(-160.88252,-248.52362)"
     style="display:inline"><rect
       style="fill:url(#linearGradient3);fill-opacity:1;stroke:none;stroke-width:0.637796"
       id="rect1"
       width="33.709"
       height="33.709"
       x="160.88252"
       y="248.52362"
       ry="0" /><g
       id="g4"
       transform="matrix(1.0710779,0,0,1.0710779,-12.633182,-18.862531)"
       style="stroke-width:0.933639"><path
         style="color:#000000;-inkscape-font-specification:'Snowstorm Bold, ';fill:#ffffff;fill-opacity:1;stroke-width:0.933638;-inkscape-stroke:none"
         d="m 168.44267,266.87844 v -0.85535 h -0.77477 v 0.85535 z m 0,-2.99372 h -3.21685 v -1.84705 h 5.66513 v 6.68163 h -5.66513 v -4.15898 h 3.21685 z m 6.4614,-1.84705 h 2.44828 v 4.83457 h 0.78096 v -4.83457 h 2.43589 v 6.68163 h -8.88819 v -6.68163 h 2.44208 v 4.83457 h 0.78098 z m 9.67825,1.84705 h -0.78098 v 4.83458 h -2.44208 v -6.68163 h 8.88819 v 6.68163 h -2.43589 v -4.83458 h -0.78096 v 4.83458 h -2.44828 z"
         id="path1-9" /><path
         style="color:#000000;-inkscape-font-specification:'Snowstorm Bold, ';fill:#000000;stroke-width:0.933638;-inkscape-stroke:none"
         d="m 165.04482,261.85631 v 2.20913 h 3.21663 v 0.31328 h -3.21663 v 4.52121 h 6.02731 v -7.04362 z m 6.45531,0 v 7.04362 h 9.24981 v -7.04362 h -2.79744 v 4.83449 h -0.41918 v -4.83449 h -2.81069 v 0.1809 4.65359 h -0.4177 v -4.83449 z m 9.67781,0 v 7.04362 h 2.8048 v -4.83449 h 0.41771 v 4.83449 h 2.81068 v -4.83449 h 0.41918 v 4.83449 h 2.79892 v -7.04362 z m -15.77131,0.36328 h 5.30368 v 6.31852 h -5.30368 V 264.742 h 3.21663 v -1.03838 h -0.18091 -3.03572 z m 6.45531,0 h 2.07971 v 4.8345 h 1.14427 v -4.8345 h 2.08558 v 4.8345 h 1.14281 v -4.8345 h 2.07381 v 6.31852 h -8.52618 z m 9.67782,0 h 8.52617 v 6.31852 h -2.07381 v -4.83449 h -1.1428 v 4.83449 h -2.08559 v -4.83449 h -0.18091 -0.96336 v 4.83449 h -2.0797 z m -14.05342,3.62257 v 1.21781 h 1.13692 v -0.18091 -1.0369 z m 0.36328,0.36181 h 0.41183 v 0.49271 h -0.41183 z"
         id="path2" /></g></g></svg>
