<?xml version="1.0" encoding="UTF-8" standalone="no"?>
<!-- Created with Inkscape (http://www.inkscape.org/) -->

<svg
   width="33.708534pt"
   height="9.354104pt"
   viewBox="0 0 33.708534 9.354104"
   version="1.1"
   id="svg5"
   inkscape:version="1.3 (0e150ed6c4, 2023-07-21)"
   sodipodi:docname="wm_logo_colours.svg"
   xmlns:inkscape="http://www.inkscape.org/namespaces/inkscape"
   xmlns:sodipodi="http://sodipodi.sourceforge.net/DTD/sodipodi-0.dtd"
   xmlns:xlink="http://www.w3.org/1999/xlink"
   xmlns="http://www.w3.org/2000/svg"
   xmlns:svg="http://www.w3.org/2000/svg">
  <sodipodi:namedview
     id="namedview7"
     pagecolor="#222222"
     bordercolor="#eeeeee"
     borderopacity="1"
     inkscape:pageshadow="0"
     inkscape:pageopacity="0"
     inkscape:pagecheckerboard="0"
     inkscape:document-units="mm"
     showgrid="false"
     fit-margin-top="0"
     fit-margin-left="0"
     fit-margin-right="0"
     fit-margin-bottom="0"
     inkscape:showpageshadow="0"
     inkscape:deskcolor="#d1d1d1"
     showguides="false"
     inkscape:zoom="1.475"
     inkscape:cx="17.627119"
     inkscape:cy="20.677966"
     inkscape:window-width="1920"
     inkscape:window-height="1043"
     inkscape:window-x="0"
     inkscape:window-y="0"
     inkscape:window-maximized="1"
     inkscape:current-layer="layer1" />
  <defs
     id="defs2">
    <linearGradient
       id="linearGradient2"
       inkscape:collect="always">
      <stop
         style="stop-color:#bd00d0;stop-opacity:1;"
         offset="0"
         id="stop2" />
      <stop
         style="stop-color:#0800fa;stop-opacity:1;"
         offset="1"
         id="stop3" />
    </linearGradient>
    <linearGradient
       inkscape:collect="always"
       xlink:href="#linearGradient2"
       id="linearGradient3"
       x1="164.87914"
       y1="255.43436"
       x2="204.89798"
       y2="248.88373"
       gradientUnits="userSpaceOnUse" />
  </defs>
  <g
     inkscape:label="Layer 1"
     inkscape:groupmode="layer"
     id="layer1"
     transform="translate(-160.88252,-248.52362)"
     style="display:inline">
    <path
       style="color:#000000;-inkscape-font-specification:'Snowstorm Bold, ';fill:url(#linearGradient3);-inkscape-stroke:none;fill-opacity:1"
       d="m 165.3942,255.1933 v -1.13585 h -1.02884 v 1.13585 z m 0,-3.97548 h -4.27178 v -2.45278 h 7.52296 v 8.87281 h -7.52296 v -5.52288 h 4.27178 z m 8.58036,-2.45278 h 3.25117 v 6.42003 h 1.03707 v -6.42003 h 3.23472 v 8.87281 h -11.80299 v -8.87281 h 3.24294 v 6.42003 h 1.03709 z m 12.85214,2.45278 h -1.03709 v 6.42003 h -3.24294 v -8.87281 h 11.80299 v 8.87281 h -3.23471 v -6.42003 h -1.03707 v 6.42003 h -3.25118 z"
       id="path1" />
    <path
       style="color:#000000;-inkscape-font-specification:'Snowstorm Bold, ';fill:#000000;-inkscape-stroke:none"
       d="m 160.88206,248.52421 v 2.93359 h 4.27149 v 0.41602 h -4.27149 v 6.0039 h 8.00391 v -9.35351 z m 8.57227,0 v 9.35351 h 12.2832 v -9.35351 h -3.71484 v 6.41992 h -0.55664 v -6.41992 h -3.73243 v 0.24023 6.17969 h -0.55468 v -6.41992 z m 12.85156,0 v 9.35351 h 3.72461 v -6.41992 h 0.55469 v 6.41992 h 3.73242 v -6.41992 h 0.55664 v 6.41992 h 3.7168 v -9.35351 z m -20.94336,0.48242 h 7.04297 v 8.39062 h -7.04297 v -5.04101 h 4.27149 v -1.37891 h -0.24024 -4.03125 z m 8.57227,0 h 2.76172 v 6.41992 h 1.51953 v -6.41992 h 2.76953 v 6.41992 h 1.51758 v -6.41992 h 2.7539 v 8.39062 H 169.9348 Z m 12.85156,0 h 11.32226 v 8.39062 h -2.7539 v -6.41992 h -1.51758 v 6.41992 h -2.76953 v -6.41992 h -0.24024 -1.27929 v 6.41992 h -2.76172 z m -18.66211,4.81055 v 1.61718 h 1.50977 v -0.24023 -1.37695 z m 0.48242,0.48046 h 0.54688 v 0.6543 h -0.54688 z"
       id="path2" />
  </g>
</svg>
